<svg id="Capa_1" enable-background="new 0 0 512 512" height="512" viewBox="0 0 512 512" width="512" xmlns="http://www.w3.org/2000/svg"><g><g><path d="m462.488 335.269-4.73-7.38c-2.235-3.487-6.876-4.503-10.362-2.268-3.487 2.235-4.503 6.874-2.268 10.362l4.732 7.382c1.951 3.042 2.51 6.641 1.576 10.135-.936 3.498-3.223 6.341-6.436 8.004l-28.786 14.873c-9.583 4.962-15.449 15.13-14.944 25.898l1.5 32.366c.17 3.608-1.144 7.004-3.699 9.562-2.56 2.562-5.958 3.88-9.579 3.714l-32.349-1.51c-10.796-.514-20.959 5.368-25.904 14.956l-14.882 28.774c-1.659 3.211-4.496 5.496-7.988 6.433-3.499.938-7.104.378-10.152-1.575l-27.268-17.479c-9.083-5.827-20.819-5.826-29.898-.001l-27.27 17.479c-3.05 1.954-6.655 2.513-10.153 1.576-3.492-.937-6.329-3.221-7.99-6.436l-14.876-28.763c-4.949-9.597-15.121-15.477-25.906-14.964l-32.348 1.509c-3.63.174-7.023-1.151-9.582-3.713-2.556-2.558-3.869-5.953-3.699-9.568l1.5-32.357c.505-10.772-5.361-20.939-14.949-25.905l-28.776-14.867c-3.217-1.665-5.504-4.508-6.44-8.006-.935-3.494-.375-7.093 1.576-10.135l17.492-27.273c5.819-9.083 5.819-20.82-.002-29.905l-17.488-27.268c-1.954-3.05-2.514-6.656-1.575-10.153.937-3.492 3.221-6.329 6.435-7.989l28.777-14.878c9.588-4.952 15.457-15.116 14.951-25.892l-1.501-32.366c-.17-3.608 1.144-7.004 3.699-9.562 2.56-2.562 5.951-3.884 9.579-3.714l32.358 1.51c10.797.489 20.949-5.38 25.895-14.957l14.882-28.774c1.659-3.211 4.496-5.496 7.988-6.433 3.499-.94 7.103-.378 10.152 1.575l27.268 17.479c7.78 4.991 17.501 5.692 25.837 2.135-1.852 8.13-3.994 16.622-6.466 25.384-1.469-.043-2.942-.071-4.421-.071-25.061 0-49.843 6.345-71.666 18.349-3.629 1.996-4.953 6.557-2.957 10.186s6.556 4.954 10.186 2.957c19.601-10.782 41.867-16.484 64.393-16.491-2.13 6.739-4.454 13.599-6.999 20.55-1.424 3.89.574 8.197 4.463 9.622.851.312 1.722.459 2.579.459 3.058 0 5.931-1.884 7.043-4.923 3.052-8.335 5.823-16.633 8.335-24.821 66.629 7.652 118.545 64.39 118.545 133.034 0 34.945-13.382 68.019-37.68 93.126-2.88 2.977-2.803 7.725.174 10.606 1.457 1.409 3.336 2.11 5.215 2.11 1.96 0 3.919-.764 5.391-2.284 27.021-27.92 41.901-64.698 41.901-103.558 0-75.466-56.426-137.995-129.303-147.629 3.573-12.985 6.504-25.565 8.888-37.432l13.709-8.788c3.05-1.954 6.655-2.514 10.153-1.576 3.492.937 6.329 3.221 7.99 6.436l14.878 28.767c4.948 9.581 15.11 15.456 25.904 14.96l32.348-1.509c3.628-.175 7.022 1.152 9.582 3.713 2.556 2.558 3.869 5.953 3.699 9.568l-1.5 32.356c-.506 10.78 5.363 20.944 14.948 25.894l28.783 14.882c3.211 1.659 5.496 4.496 6.432 7.988.939 3.497.379 7.103-1.573 10.15l-17.5 27.285c-2.794 4.379-4.308 9.426-4.377 14.594-.055 4.142 3.257 7.545 7.399 7.6h.103c4.095 0 7.443-3.293 7.498-7.4.032-2.376.731-4.702 2.014-6.712l17.492-27.273c4.197-6.551 5.449-14.618 3.433-22.131-2.014-7.509-7.13-13.862-14.034-17.428l-28.783-14.882c-4.393-2.268-7.082-6.925-6.85-11.869l1.5-32.355c.366-7.763-2.576-15.37-8.071-20.87-5.501-5.504-13.117-8.461-20.89-8.095l-32.343 1.509c-4.95.225-9.616-2.467-11.886-6.863l-14.878-28.767c-3.567-6.906-9.92-12.023-17.429-14.037-7.513-2.015-15.579-.764-22.133 3.435l-1.951 1.251c4.169-25.662 5.633-46.374 5.633-58.103-.001-20.845-16.96-37.804-37.806-37.804s-37.805 16.959-37.805 37.805c0 10.718.007 29.33 7.76 59.466l-4.078-2.614c-6.551-4.198-14.618-5.45-22.132-3.434-7.509 2.014-13.862 7.131-17.427 14.033l-14.882 28.774c-2.269 4.393-6.929 7.087-11.877 6.859l-32.354-1.51c-7.766-.352-15.387 2.591-20.887 8.096-5.496 5.5-8.437 13.107-8.072 20.864l1.501 32.365c.231 4.939-2.457 9.596-6.853 11.866l-28.779 14.88c-6.906 3.567-12.022 9.92-14.036 17.429-2.016 7.513-.764 15.58 3.435 22.134l17.488 27.268c2.669 4.167 2.669 9.552.002 13.716l-17.49 27.271c-4.196 6.541-5.449 14.6-3.44 22.11 2.011 7.514 7.127 13.875 14.04 17.452l28.774 14.866c4.398 2.277 7.089 6.941 6.858 11.884l-1.5 32.355c-.366 7.763 2.576 15.37 8.071 20.87 5.5 5.504 13.111 8.455 20.89 8.095l32.353-1.51c4.949-.234 9.606 2.46 11.877 6.863l14.878 28.767c3.567 6.906 9.92 12.023 17.429 14.037 7.515 2.015 15.58.764 22.133-3.435l27.273-17.482c4.161-2.669 9.54-2.669 13.703.001l27.272 17.481c4.499 2.883 9.712 4.376 14.971 4.376 2.398 0 4.807-.311 7.161-.942 7.509-2.014 13.862-7.13 17.427-14.033l14.885-28.778c2.267-4.397 6.927-7.084 11.875-6.856l32.354 1.51c7.773.36 15.387-2.591 20.887-8.096 5.496-5.5 8.437-13.107 8.072-20.864l-1.501-32.364c-.231-4.939 2.461-9.602 6.852-11.876l28.785-14.872c6.909-3.575 12.025-9.936 14.035-17.45 2.008-7.509.754-15.569-3.44-22.108zm-217.513-225.948c-11.78-37.874-11.78-59.758-11.78-71.516 0-12.575 10.23-22.805 22.805-22.805s22.805 10.23 22.805 22.805c0 .434-.141 28.245-7.774 69.09l-8.181 5.244c-4.16 2.669-9.539 2.669-13.703-.001l-4.129-2.647c-.016-.056-.025-.113-.043-.17z"/><path d="m164.693 203.159c3.03-2.825 3.195-7.571.371-10.6-2.825-3.029-7.571-3.195-10.6-.371-30.115 28.081-47.386 67.791-47.386 108.947 0 82.122 66.806 148.933 148.923 148.933 27.774 0 54.872-7.7 78.364-22.267 3.521-2.183 4.605-6.806 2.422-10.326-2.182-3.521-6.807-4.606-10.326-2.422-21.117 13.094-45.481 20.015-70.459 20.015-73.845 0-133.922-60.082-133.922-133.933-.002-37.011 15.531-72.722 42.613-97.976z"/><path d="m287.593 226.579c-3.82-1.604-8.215.195-9.818 4.013l-55.584 132.446c-1.603 3.819.194 8.215 4.013 9.818.948.398 1.932.586 2.899.586 2.931 0 5.714-1.729 6.919-4.6l55.584-132.446c1.603-3.819-.194-8.215-4.013-9.817z"/><path d="m218.465 219.821c-17.678 0-32.061 16.168-32.061 36.04 0 19.873 14.383 36.041 32.061 36.041s32.061-16.168 32.061-36.041c0-19.872-14.383-36.04-32.061-36.04zm0 57.081c-9.407 0-17.06-9.439-17.06-21.04s7.653-21.04 17.06-21.04 17.06 9.439 17.06 21.04-7.653 21.04-17.06 21.04z"/><path d="m261.475 346.417c0 19.872 14.382 36.04 32.06 36.04s32.061-16.168 32.061-36.04-14.383-36.04-32.061-36.04-32.06 16.168-32.06 36.04zm32.06-21.04c9.407 0 17.06 9.439 17.06 21.04s-7.653 21.04-17.06 21.04-17.06-9.439-17.06-21.04 7.653-21.04 17.06-21.04z"/></g></g></svg>